# This file uses centimeters as units for non-parametric coordinates.

mtllib caja.mtl
g default
v -21.421736 -21.421736 21.421736
v 21.421736 -21.421736 21.421736
v -21.421736 21.421736 21.421736
v 21.421736 21.421736 21.421736
v -21.421736 21.421736 -21.421736
v 21.421736 21.421736 -21.421736
v -21.421736 -21.421736 -21.421736
v 21.421736 -21.421736 -21.421736
v -20.421736 -20.421736 21.346006
v 20.421736 -20.421736 21.346006
v 20.421736 20.421736 21.421736
v -20.421736 20.421736 21.346006
v 20.421736 17.341728 21.346006
v 21.421736 17.349163 21.421736
v 17.057304 20.421736 21.346006
v 17.046377 21.421736 21.421736
v 17.079498 18.391052 21.346006
v -17.022308 -20.421736 21.346006
v 18.154100 17.326704 21.346006
v -15.096102 -20.421736 21.346006
v -21.421736 -31.043152 -21.421736
v 21.421736 -31.043152 -21.421736
v 21.421736 -31.043152 21.421736
v -21.421736 -31.043152 21.421736
v -20.321735 -22.521736 21.587132
v 20.321735 -22.521736 21.564425
v -20.321735 -29.943153 21.587132
v 20.321735 -29.943153 21.564425
v -14.685156 -21.421736 21.421736
v -13.931078 -22.521736 21.564425
v -13.931078 -29.943153 21.564425
v -14.685156 -31.043152 21.421736
v -14.685156 -31.043152 -21.421736
v -14.685156 -21.421736 -21.421736
v -14.685156 21.421736 -21.421736
v -15.783037 -21.421736 21.421736
v -14.972583 -22.521736 21.587132
v -14.972583 -29.943153 21.587132
v -15.783037 -31.043152 21.421736
v -15.783037 -31.043152 -21.421736
v -15.783037 -21.421736 -21.421736
v -15.783037 21.421736 -21.421736
v 20.421736 18.411844 21.421736
v 21.421736 18.402044 21.421736
v 18.154100 17.326704 21.019035
v -15.096102 -20.421736 21.019035
v 20.421736 -20.421736 21.019035
v 20.421736 17.341728 21.019035
v -20.421736 -20.421736 21.019035
v -17.022308 -20.421736 21.019035
v 17.079498 18.391052 21.019035
v 17.057304 20.421736 21.019035
v -20.421736 20.421736 21.019035
v -13.931078 -22.521736 21.778456
v 20.321735 -22.521736 21.778456
v -13.931078 -29.943153 21.778456
v 20.321735 -29.943153 21.778456
v -14.972583 -22.521736 21.801163
v -14.972583 -29.943153 21.801163
v -20.321735 -22.521736 21.801163
v -20.321735 -29.943153 21.801163
vt 0.940411 0.026024
vt 0.700253 0.236184
vt 0.699285 0.011148
vt 0.940390 0.011558
vt 0.009896 0.009804
vt 0.009766 0.252488
vt 0.009781 0.280098
vt 0.684679 0.558936
vt 0.684679 0.331222
vt 0.684679 0.324298
vt 0.684679 0.288737
vt 0.414480 0.331222
vt 0.414480 0.558936
vt 0.340874 0.052361
vt 0.237479 0.838049
vt 0.009766 0.838049
vt 0.340857 0.280107
vt 0.280068 0.280101
vt 0.028829 0.280100
vt 0.035477 0.280107
vt 0.414480 0.288737
vt 0.280054 0.009911
vt 0.648585 0.567708
vt 0.280043 0.045490
vt 0.280054 0.052407
vt 0.699778 0.238131
vt 0.028765 0.273793
vt 0.016086 0.273789
vt 0.990234 0.580521
vt 0.831157 0.756508
vt 0.635910 0.589089
vt 0.941422 0.009766
vt 0.697836 0.009766
vt 0.980858 0.567708
vt 0.637740 0.588163
vt 0.649306 0.569640
vt 0.980231 0.569680
vt 0.988282 0.579888
vt 0.831010 0.754521
vt 0.942084 0.027264
vt 0.770863 0.195766
vt 0.988014 0.195809
vt 0.987959 0.243100
vt 0.770807 0.243058
vt 0.279965 0.838049
vt 0.340724 0.009766
vt 0.988734 0.194690
vt 0.770083 0.194690
vt 0.026981 0.061291
vt 0.076392 0.061288
vt 0.988738 0.244176
vt 0.770088 0.244177
vt 0.076369 0.024930
vt 0.026967 0.024930
vt 0.244403 0.567850
vt 0.353801 0.324298
vt 0.414480 0.324298
vt 0.027889 0.025875
vt 0.075508 0.025936
vt 0.075469 0.060344
vt 0.027844 0.060286
vt 0.624000 0.009766
vt 0.624000 0.837907
vt 0.624000 0.802346
vt 0.624000 0.795422
vt 0.340644 0.288879
vt 0.070445 0.288879
vt 0.353801 0.558936
vt 0.244403 0.838049
vt 0.353801 0.331222
vt 0.353801 0.288737
vt 0.624000 0.567708
vt 0.340644 0.559078
vt 0.321599 0.559078
vt 0.314959 0.559078
vt 0.070445 0.559078
vt 0.009766 0.288879
vt 0.009766 0.559078
vt 0.353801 0.009766
vt 0.353801 0.279965
vt 0.624000 0.279965
vt 0.684679 0.009766
vt 0.684679 0.279965
vt 0.279965 0.567850
vt 0.340876 0.045411
vt 0.237479 0.567850
vt 0.009766 0.567850
vt 0.273735 0.016233
vt 0.016212 0.016128
vt 0.016091 0.252559
vt 0.028900 0.252702
vt 0.273728 0.037673
vt 0.035614 0.259480
vt 0.035529 0.273782
vt 0.273728 0.049818
vt 0.273746 0.273781
vt 0.333868 0.273135
vt 0.287058 0.273129
vt 0.287054 0.057159
vt 0.333876 0.057123
vt 0.333769 0.016791
vt 0.287039 0.016893
vt 0.287058 0.050594
vt 0.333867 0.050553
vt 0.353801 0.837907
vt 0.353801 0.595302
vt 0.353801 0.567708
vn -0.000000 0.000000 1.000000
vn -0.000000 0.000000 1.000000
vn -0.000000 0.000000 1.000000
vn -0.000000 0.000000 1.000000
vn 0.000000 1.000000 -0.000000
vn 0.000000 1.000000 -0.000000
vn 0.000000 1.000000 -0.000000
vn 0.000000 1.000000 -0.000000
vn 0.000000 1.000000 -0.000000
vn 0.000000 1.000000 -0.000000
vn 0.000000 1.000000 -0.000000
vn 0.000000 0.000000 -1.000000
vn 0.000000 0.000000 -1.000000
vn 0.000000 0.000000 -1.000000
vn 0.000000 0.000000 -1.000000
vn 0.000000 -1.000000 0.000000
vn 0.000000 -1.000000 0.000000
vn 0.000000 -1.000000 0.000000
vn 0.000000 -1.000000 0.000000
vn 1.000000 0.000000 0.000000
vn 1.000000 0.000000 0.000000
vn 1.000000 0.000000 0.000000
vn 1.000000 0.000000 0.000000
vn 1.000000 0.000000 0.000000
vn 1.000000 0.000000 0.000000
vn -1.000000 0.000000 0.000000
vn -1.000000 0.000000 0.000000
vn -1.000000 0.000000 0.000000
vn -1.000000 0.000000 0.000000
vn 0.000000 0.012075 0.999927
vn 0.000550 0.125297 0.992119
vn 0.000240 0.095062 0.995471
vn 0.000000 0.015725 0.999876
vn -0.017426 -0.012288 0.999773
vn -0.011349 -0.010680 0.999879
vn -0.005929 -0.020013 0.999782
vn -0.012828 -0.011773 0.999848
vn -0.003924 -0.061648 0.998090
vn -0.000891 -0.071645 0.997430
vn 0.039644 -0.035977 0.998566
vn 0.039644 -0.035977 0.998566
vn 0.028304 0.020286 0.999394
vn 0.068187 0.007364 0.997645
vn -0.013687 0.063221 0.997906
vn -0.074489 -0.000969 0.997221
vn -0.070184 -0.003863 0.997527
vn -0.039062 0.036558 0.998568
vn -0.002146 -0.000795 0.999997
vn 0.000000 0.000000 1.000000
vn 0.000000 0.000000 1.000000
vn 0.000000 0.000000 1.000000
vn 0.000000 0.000000 1.000000
vn 0.000000 0.000000 1.000000
vn -0.000720 -0.002295 0.999997
vn 0.000000 0.000000 -1.000000
vn 0.000000 0.000000 -1.000000
vn 0.000000 0.000000 -1.000000
vn 0.000000 0.000000 -1.000000
vn 1.000000 0.000000 0.000000
vn 1.000000 0.000000 0.000000
vn 1.000000 0.000000 0.000000
vn 1.000000 0.000000 0.000000
vn 0.000000 0.000000 1.000000
vn 0.000000 0.000000 1.000000
vn 0.000000 0.000000 1.000000
vn 0.000000 0.000000 1.000000
vn -1.000000 0.000000 0.000000
vn -1.000000 0.000000 0.000000
vn -1.000000 0.000000 0.000000
vn -1.000000 0.000000 0.000000
vn 0.002831 0.112993 0.993592
vn 0.025149 0.103826 0.994278
vn -0.090884 -0.058594 0.994136
vn -0.090883 -0.058595 0.994136
vn -0.090883 0.058595 0.994136
vn 0.002831 -0.112994 0.993592
vn 0.000667 -0.129745 0.991547
vn 0.025149 -0.103826 0.994277
vn 0.025149 -0.103826 0.994277
vn 0.014283 0.060465 0.998068
vn 0.014283 -0.060465 0.998068
vn 0.000807 -0.148483 0.988915
vn 0.000000 -1.000000 0.000000
vn 0.000000 -1.000000 0.000000
vn 0.000000 0.000000 -1.000000
vn 0.000000 0.000000 -1.000000
vn 0.000000 0.000000 -1.000000
vn 0.000000 0.000000 -1.000000
vn 0.000000 0.000000 1.000000
vn 0.000000 0.000000 1.000000
vn 0.000000 0.000000 1.000000
vn 0.000000 0.000000 1.000000
vn 0.000000 -1.000000 0.000000
vn 0.000000 -1.000000 0.000000
vn 0.000000 0.000000 -1.000000
vn 0.000000 0.000000 -1.000000
vn 0.000000 0.000000 -1.000000
vn 0.000000 0.000000 -1.000000
vn 0.750402 -0.660981 0.000000
vn 0.750402 -0.660981 0.000000
vn 0.750402 -0.660981 0.000000
vn 0.750402 -0.660981 0.000000
vn 0.000000 1.000000 0.000000
vn 0.000000 1.000000 0.000000
vn 0.000000 1.000000 0.000000
vn 0.000000 1.000000 0.000000
vn -1.000000 0.000000 0.000000
vn -1.000000 0.000000 0.000000
vn -1.000000 0.000000 0.000000
vn -1.000000 0.000000 0.000000
vn 0.006625 -0.999978 0.000000
vn 0.006625 -0.999978 0.000000
vn 0.006625 -0.999978 0.000000
vn 0.006625 -0.999978 0.000000
vn 0.000000 1.000000 0.000000
vn 0.000000 1.000000 0.000000
vn 0.000000 1.000000 0.000000
vn 0.000000 1.000000 0.000000
vn -0.751227 0.660044 0.000000
vn -0.751227 0.660044 0.000000
vn -0.751227 0.660044 0.000000
vn -0.751227 0.660044 0.000000
vn -0.999940 -0.010929 0.000000
vn -0.999940 -0.010929 0.000000
vn -0.999940 -0.010929 0.000000
vn -0.999940 -0.010929 0.000000
vn 0.000000 -1.000000 0.000000
vn 0.000000 -1.000000 0.000000
vn 0.000000 -1.000000 0.000000
vn 0.000000 -1.000000 0.000000
vn 1.000000 0.000000 0.000000
vn 1.000000 0.000000 0.000000
vn 1.000000 0.000000 0.000000
vn 1.000000 0.000000 0.000000
vn 0.000000 1.000000 0.000000
vn 0.000000 1.000000 0.000000
vn 0.000000 1.000000 0.000000
vn 0.000000 1.000000 0.000000
vn -1.000000 0.000000 0.000000
vn -1.000000 0.000000 0.000000
vn -1.000000 0.000000 0.000000
vn -1.000000 0.000000 0.000000
vn 0.000000 -1.000000 0.000000
vn 0.000000 -1.000000 0.000000
vn 0.000000 -1.000000 0.000000
vn 0.000000 -1.000000 0.000000
vn 1.000000 0.000000 0.000000
vn 1.000000 0.000000 0.000000
vn 1.000000 0.000000 0.000000
vn 1.000000 0.000000 0.000000
vn 1.000000 0.000000 0.000000
vn 1.000000 0.000000 0.000000
vn 1.000000 0.000000 0.000000
vn 1.000000 0.000000 0.000000
vn 0.000000 1.000000 0.000000
vn 0.000000 1.000000 0.000000
vn 0.000000 1.000000 0.000000
vn 0.000000 1.000000 0.000000
vn -1.000000 0.000000 0.000000
vn -1.000000 0.000000 0.000000
vn -1.000000 0.000000 0.000000
vn -1.000000 0.000000 0.000000
vn 0.000000 -1.000000 0.000000
vn 0.000000 -1.000000 0.000000
vn 0.000000 -1.000000 0.000000
vn 0.000000 -1.000000 0.000000
s off
g pCube1
usemtl initialShadingGroup
f 45/1/1 46/2/2 47/3/3 48/4/4
f 3/105/5 16/106/6 4/107/7 6/72/8 35/65/9 42/64/10 5/63/11
s 1
f 34/12/12 35/9/13 6/8/14 8/13/15
s 2
f 32/86/16 33/15/17 22/16/18 23/87/19
s off
f 2/76/20 8/67/21 6/66/22 4/73/23 44/74/24 14/75/25
f 7/62/26 1/81/27 3/80/28 5/79/29
s 3
f 18/92/30 36/24/31 29/25/32 20/95/33
f 43/27/34 44/19/35 4/7/36 11/28/37
f 15/90/38 16/6/39 3/5/40 12/89/41
f 3/5/40 1/22/42 9/88/43 12/89/41
f 2/18/44 14/20/45 13/94/46 10/96/47
f 11/28/37 15/90/38 17/91/48 43/27/34
f 4/7/36 16/6/39 15/90/38 11/28/37
s off
f 49/35/49 50/36/50 51/37/51 52/38/52 53/39/53
s 3
f 17/91/48 18/92/30 20/95/33 19/93/54
s 5
f 33/70/55 34/12/56 8/13/57 22/68/58
s off
f 8/67/59 2/76/60 23/78/61 22/77/62
f 55/41/63 54/42/64 56/43/65 57/44/66
f 1/81/67 7/62/68 21/82/69 24/83/70
s 3
f 2/18/44 29/25/32 30/99/71 26/98/72
f 1/22/42 24/46/73 27/101/74 25/102/75
f 31/100/76 32/14/77 23/17/78 28/97/79
f 23/17/78 2/18/44 26/98/72 28/97/79
f 30/99/71 29/25/32 36/24/31 37/103/80
f 31/100/76 30/99/71 37/103/80 38/104/81
f 38/104/81 39/85/82 32/14/77 31/100/76
s 2
f 39/55/83 40/69/84 33/15/17 32/86/16
s 5
f 40/56/85 41/57/86 34/12/56 33/70/55
s 1
f 41/57/87 42/10/88 35/9/13 34/12/12
s 3
f 20/95/33 29/25/32 2/18/44 10/96/47
f 37/103/80 36/24/31 1/22/42 25/102/75
s off
f 59/58/89 58/59/90 60/60/91 61/61/92
s 3
f 24/46/73 39/85/82 38/104/81 27/101/74
s 2
f 21/45/93 40/69/84 39/55/83 24/84/94
s 5
f 7/21/95 41/57/86 40/56/85 21/71/96
s 1
f 5/11/97 42/10/88 41/57/87 7/21/98
s 3
f 1/22/42 36/24/31 18/92/30 9/88/43
f 13/94/46 14/20/45 44/19/35 43/27/34
f 43/27/34 17/91/48 19/93/54 13/94/46
s off
f 19/40/99 20/26/100 46/2/101 45/1/102
f 20/26/103 10/33/104 47/3/105 46/2/106
f 10/33/107 13/32/108 48/4/109 47/3/110
f 13/32/111 19/40/112 45/1/113 48/4/114
f 9/31/115 18/23/116 50/36/117 49/35/118
f 18/23/119 17/34/120 51/37/121 50/36/122
f 17/34/123 15/29/124 52/38/125 51/37/126
f 15/29/127 12/30/128 53/39/129 52/38/130
f 12/30/131 9/31/132 49/35/133 53/39/134
f 26/48/135 30/47/136 54/42/137 55/41/138
f 30/47/139 31/51/140 56/43/141 54/42/142
f 31/51/143 28/52/144 57/44/145 56/43/146
f 28/52/147 26/48/148 55/41/149 57/44/150
f 38/54/151 37/53/152 58/59/153 59/58/154
f 37/53/155 25/50/156 60/60/157 58/59/158
f 25/50/159 27/49/160 61/61/161 60/60/162
f 27/49/163 38/54/164 59/58/165 61/61/166
